<svg width="220" height="220" viewBox="0 0 220 220" fill="none" xmlns="http://www.w3.org/2000/svg">
  <defs>
    <linearGradient id="bg" x1="28" y1="24" x2="188" y2="196" gradientUnits="userSpaceOnUse">
      <stop stop-color="#2F6BFF"/>
      <stop offset="1" stop-color="#0FC6B6"/>
    </linearGradient>
    <linearGradient id="glass" x1="110" y1="42" x2="110" y2="178" gradientUnits="userSpaceOnUse">
      <stop stop-color="#FFFFFF" stop-opacity="0.95"/>
      <stop offset="1" stop-color="#DCE8FF"/>
    </linearGradient>
  </defs>
  <rect x="16" y="16" width="188" height="188" rx="54" fill="url(#bg)"/>
  <rect x="54" y="40" width="58" height="140" rx="18" fill="#0F1830" fill-opacity="0.22"/>
  <rect x="62" y="48" width="42" height="124" rx="12" fill="url(#glass)"/>
  <circle cx="83" cy="160" r="4" fill="#2F6BFF" fill-opacity="0.7"/>
  <path d="M112 66C112 58.268 118.268 52 126 52H137.868C145.826 52 153.151 56.2155 157.13 63.0785L172 88.7271V160C172 171.046 163.046 180 152 180H126C118.268 180 112 173.732 112 166V66Z" fill="#0F1830" fill-opacity="0.18"/>
  <path d="M120 70C120 63.3726 125.373 58 132 58H140.81C146.923 58 152.562 61.2948 155.571 66.6216L166 85.0909V158C166 164.627 160.627 170 154 170H132C125.373 170 120 164.627 120 158V70Z" fill="#F7FBFF"/>
  <path d="M133 84H153.5L148 74.5C146.335 71.6252 143.267 69.8571 139.945 69.8571H133V84Z" fill="#2F6BFF" fill-opacity="0.17"/>
  <path d="M134 104H152" stroke="#2F6BFF" stroke-width="8" stroke-linecap="round"/>
  <path d="M134 122H152" stroke="#2F6BFF" stroke-width="8" stroke-linecap="round" opacity="0.7"/>
  <path d="M134 140H146" stroke="#0FC6B6" stroke-width="8" stroke-linecap="round"/>
</svg>
